<svg width="48" height="48" viewBox="0 0 48 48" fill="none" xmlns="http://www.w3.org/2000/svg">
<g opacity="0.2" clip-path="url(#clip0_6918_1030)">
<path d="M36 48C35.8 48 35.6 47.96 35.412 47.88C34.948 47.682 24 42.914 24 33.108V25.072C24 24.43 24.408 23.86 25.018 23.652L35.518 20.08C35.83 19.974 36.17 19.974 36.482 20.08L46.982 23.652C47.592 23.86 48 24.43 48 25.072V33.108C48 42.914 37.052 47.682 36.588 47.882C36.4 47.96 36.2 48 36 48ZM27 26.146V33.106C27 39.772 33.912 43.78 36 44.836C38.088 43.78 45 39.772 45 33.106V26.146L36 23.084L27 26.146Z" fill="#3469A7"/>
<path d="M35.4999 39C35.1039 39 34.7199 38.844 34.4399 38.56L30.4399 34.56C29.8539 33.974 29.8539 33.024 30.4399 32.438C31.0259 31.852 31.9759 31.852 32.5619 32.438L35.3399 35.216L40.2999 28.6C40.7919 27.938 41.7359 27.802 42.3999 28.302C43.0619 28.798 43.1959 29.738 42.6979 30.402L36.6979 38.402C36.4379 38.75 36.0399 38.966 35.6039 38.998C35.5699 38.998 35.5359 39 35.4999 39Z" fill="#3469A7"/>
<path d="M21.18 42H5.5C2.466 42 0 39.534 0 36.5V5.5C0 2.466 2.466 0 5.5 0H28.5C31.534 0 34 2.466 34 5.5V16.36C34 17.188 33.328 17.86 32.5 17.86C31.672 17.86 31 17.188 31 16.36V5.5C31 4.122 29.878 3 28.5 3H5.5C4.122 3 3 4.122 3 5.5V36.5C3 37.878 4.122 39 5.5 39H21.18C22.008 39 22.68 39.672 22.68 40.5C22.68 41.328 22.008 42 21.18 42Z" fill="#3469A7"/>
<path d="M26.5 19.0001H7.5C6.672 19.0001 6 18.3281 6 17.5001C6 16.6721 6.672 16.0001 7.5 16.0001H26.5C27.328 16.0001 28 16.6721 28 17.5001C28 18.3281 27.328 19.0001 26.5 19.0001Z" fill="#3469A7"/>
<path d="M18.5 27H7.5C6.672 27 6 26.328 6 25.5C6 24.672 6.672 24 7.5 24H18.5C19.328 24 20 24.672 20 25.5C20 26.328 19.328 27 18.5 27Z" fill="#3469A7"/>
<path d="M16.5 10.9999H7.5C6.672 10.9999 6 10.3279 6 9.49988C6 8.67188 6.672 7.99988 7.5 7.99988H16.5C17.328 7.99988 18 8.67188 18 9.49988C18 10.3279 17.328 10.9999 16.5 10.9999Z" fill="#3469A7"/>
</g>
<defs>
<clipPath id="clip0_6918_1030">
<rect width="48" height="48" fill="white"/>
</clipPath>
</defs>
</svg>
