<svg width="40" height="40" viewBox="0 0 40 40" fill="none" xmlns="http://www.w3.org/2000/svg">
<g clip-path="url(#clip0_6907_599)">
<rect width="40" height="40" rx="14" fill="#AF0040" fill-opacity="0.07"/>
<path d="M19.9997 29.8466C19.5695 29.8466 19.1489 29.7191 18.7912 29.4801C18.4335 29.2411 18.1548 28.9014 17.9901 28.5039C17.8255 28.1065 17.7824 27.6691 17.8663 27.2472C17.9503 26.8253 18.1574 26.4377 18.4616 26.1335C18.7658 25.8293 19.1534 25.6221 19.5753 25.5382C19.9973 25.4543 20.4346 25.4974 20.832 25.662C21.2295 25.8266 21.5692 26.1054 21.8082 26.4631C22.0472 26.8208 22.1748 27.2413 22.1748 27.6715C22.1731 28.2479 21.9433 28.8001 21.5358 29.2077C21.1283 29.6152 20.576 29.8449 19.9997 29.8466ZM22.4902 12.9786L21.7615 21.7008C21.7235 22.1419 21.5214 22.5527 21.1952 22.852C20.869 23.1514 20.4424 23.3174 19.9997 23.3174C19.5569 23.3174 19.1303 23.1514 18.8041 22.852C18.4779 22.5527 18.2758 22.1419 18.2378 21.7008L17.5092 12.9786C17.4777 12.6408 17.5154 12.3001 17.6198 11.9773C17.7242 11.6544 17.8932 11.3562 18.1165 11.1007C18.3398 10.8453 18.6128 10.6379 18.9187 10.4913C19.2247 10.3446 19.5573 10.2618 19.8963 10.2477C20.2353 10.2337 20.5737 10.2888 20.8907 10.4096C21.2078 10.5305 21.4969 10.7146 21.7406 10.9507C21.9842 11.1869 22.1773 11.4701 22.308 11.7832C22.4388 12.0963 22.5044 12.4327 22.501 12.772C22.5029 12.8411 22.4992 12.9102 22.4902 12.9786Z" fill="#7D0000"/>
</g>
<defs>
<clipPath id="clip0_6907_599">
<rect width="40" height="40" fill="white"/>
</clipPath>
</defs>
</svg>
