<svg width="40" height="40" viewBox="0 0 40 40" fill="none" xmlns="http://www.w3.org/2000/svg">
<g clip-path="url(#clip0_6907_564)">
<rect width="40" height="40" rx="14" fill="#0058C2" fill-opacity="0.07"/>
<path d="M23.3921 27.7214L23.117 28.8462C22.2915 29.1721 21.6321 29.42 21.1411 29.5905C20.6495 29.7616 20.0784 29.8466 19.4276 29.8466C18.4283 29.8466 17.651 29.6018 17.0966 29.1156C16.5422 28.6274 16.2649 28.0088 16.2649 27.2583C16.2649 26.9678 16.285 26.669 16.3269 26.3645C16.3691 26.0597 16.4361 25.7164 16.5279 25.3327L17.5595 21.6813C17.6513 21.3316 17.7293 21.0003 17.7918 20.687C17.8552 20.3757 17.8857 20.0892 17.8857 19.8314C17.8857 19.3651 17.7892 19.0389 17.597 18.8555C17.4048 18.6727 17.038 18.5798 16.4935 18.5798C16.2268 18.5798 15.9527 18.6225 15.6733 18.7051C15.3927 18.7881 15.1528 18.8682 14.9514 18.9427L15.2273 17.817C15.9031 17.5418 16.5491 17.3062 17.167 17.1106C17.7849 16.9145 18.3688 16.8164 18.9211 16.8164C19.9135 16.8164 20.6793 17.0563 21.2171 17.536C21.7549 18.0161 22.0237 18.6384 22.0237 19.4053C22.0237 19.564 22.0061 19.8435 21.9681 20.2431C21.9311 20.6436 21.8621 21.0106 21.7615 21.3443L20.7342 24.9811C20.65 25.2732 20.5743 25.6071 20.5085 25.9829C20.4405 26.3562 20.4081 26.6414 20.4081 26.8327C20.4081 27.3156 20.5157 27.6453 20.7316 27.8206C20.949 27.9959 21.3236 28.0831 21.8555 28.0831C22.1053 28.0831 22.3894 28.0388 22.7052 27.9517C23.0201 27.8647 23.2497 27.7883 23.3921 27.7214ZM23.6527 12.4532C23.6527 13.0868 23.4139 13.6279 22.9339 14.0729C22.4553 14.5194 21.8785 14.7429 21.2037 14.7429C20.5269 14.7429 19.9486 14.5194 19.4645 14.0729C18.9812 13.6278 18.7391 13.0868 18.7391 12.4532C18.7391 11.8208 18.9812 11.2787 19.4645 10.8281C19.9478 10.3782 20.527 10.1534 21.2037 10.1534C21.8783 10.1534 22.4553 10.3788 22.9339 10.8281C23.4142 11.2787 23.6527 11.8209 23.6527 12.4532Z" fill="#001F43"/>
</g>
<defs>
<clipPath id="clip0_6907_564">
<rect width="40" height="40" fill="white"/>
</clipPath>
</defs>
</svg>
