<svg width="13" height="13" viewBox="0 0 13 13" fill="none" xmlns="http://www.w3.org/2000/svg">
<path d="M12.0313 0H7.65628C7.48223 0 7.31532 0.0691404 7.19224 0.192211C7.06917 0.315282 7.00003 0.482202 7.00003 0.65625C7.00003 0.830298 7.06917 0.997218 7.19224 1.12029C7.31532 1.24336 7.48223 1.3125 7.65628 1.3125H10.447L5.03128 6.72818C4.90877 6.85136 4.8401 7.0181 4.84033 7.19184C4.84057 7.36558 4.90969 7.53214 5.03254 7.65499C5.1554 7.77784 5.32195 7.84696 5.49569 7.8472C5.66943 7.84744 5.83617 7.77877 5.95936 7.65625L11.375 2.24057V5.03125C11.375 5.2053 11.4442 5.37222 11.5672 5.49529C11.6903 5.61836 11.8572 5.6875 12.0313 5.6875C12.2053 5.6875 12.3723 5.61836 12.4953 5.49529C12.6184 5.37222 12.6875 5.2053 12.6875 5.03125V0.65625C12.6875 0.482202 12.6184 0.315282 12.4953 0.192211C12.3723 0.0691404 12.2053 0 12.0313 0Z" fill="#0146DB"/>
<path d="M10.0312 7C9.8572 7 9.69028 7.06914 9.56721 7.19221C9.44414 7.31528 9.375 7.4822 9.375 7.65625V11.375H1.3125V3.3125H5.03125C5.2053 3.3125 5.37222 3.24336 5.49529 3.12029C5.61836 2.99722 5.6875 2.8303 5.6875 2.65625C5.6875 2.4822 5.61836 2.31528 5.49529 2.19221C5.37222 2.06914 5.2053 2 5.03125 2H0.65625C0.482202 2 0.315282 2.06914 0.192211 2.19221C0.0691404 2.31528 0 2.4822 0 2.65625V12.0312C0 12.2053 0.0691404 12.3722 0.192211 12.4953C0.315282 12.6184 0.482202 12.6875 0.65625 12.6875H10.0312C10.2053 12.6875 10.3722 12.6184 10.4953 12.4953C10.6184 12.3722 10.6875 12.2053 10.6875 12.0312V7.65625C10.6875 7.4822 10.6184 7.31528 10.4953 7.19221C10.3722 7.06914 10.2053 7 10.0312 7Z" fill="#0146DB"/>
</svg>
