<svg width="16" height="16" viewBox="0 0 16 16" fill="none" xmlns="http://www.w3.org/2000/svg">
<path d="M8 0C10.8 0 12.2 0.000134261 13.2695 0.544922C14.2103 1.02429 14.9757 1.78966 15.4551 2.73047C15.9999 3.79998 16 5.20005 16 8C16 10.8 15.9999 12.2 15.4551 13.2695C14.9757 14.2103 14.2103 14.9757 13.2695 15.4551C12.2 15.9999 10.8 16 8 16C5.20005 16 3.79998 15.9999 2.73047 15.4551C1.78966 14.9757 1.02429 14.2103 0.544922 13.2695C0.000134261 12.2 0 10.8 0 8C0 5.20005 0.000134261 3.79998 0.544922 2.73047C1.02429 1.78966 1.78966 1.02429 2.73047 0.544922C3.79998 0.000134261 5.20005 0 8 0ZM6.76367 4.99316C6.43042 4.80123 6.01367 5.04204 6.01367 5.42676V10.5732C6.01367 10.958 6.43042 11.1988 6.76367 11.0068L11.2217 8.43262C11.5545 8.2401 11.5545 7.7599 11.2217 7.56738L6.76367 4.99316Z" fill="#5D6477"/>
</svg>
